<svg xmlns="http://www.w3.org/2000/svg" viewBox="0 0 10 8">
  <defs>
    <style>
      .cls-1 {
        fill: none;
      }

      .cls-2, .cls-3 {
        stroke: none;
      }

      .cls-3 {
        fill: #707070;
      }
    </style>
  </defs>
  <g id="Logo" data-name="Group 1" transform="translate(-765.97 -269)">
    <g id="Polygon_1" data-name="Polygon 1" class="cls-1" transform="translate(767 269)">
      <path class="cls-2" d="M4,0,8,8H0Z"/>
      <path class="cls-3" d="M 3.999999761581421 2.236070156097412 L 1.618034839630127 7 L 6.381964683532715 7 L 3.999999761581421 2.236070156097412 M 3.999999761581421 0 L 8 8 L -4.76837158203125e-07 8 L 3.999999761581421 0 Z"/>
    </g>
    <g id="Ellipse_2" data-name="Ellipse 2" class="cls-1" transform="translate(765.97 272.3)">
      <path class="cls-2" d="M5.03,0A13.7,13.7,0,0,1,6.965.133,8.976,8.976,0,0,1,8.55.5a3.619,3.619,0,0,1,1.076.54.9.9,0,0,1,.4.664.873.873,0,0,1-.382.667,3.512,3.512,0,0,1-1.067.547,8.876,8.876,0,0,1-1.593.37A13.68,13.68,0,0,1,5.03,3.42a13.68,13.68,0,0,1-1.957-.136,8.876,8.876,0,0,1-1.593-.37A3.512,3.512,0,0,1,.412,2.367.873.873,0,0,1,.03,1.7a.9.9,0,0,1,.4-.664A3.619,3.619,0,0,1,1.509.5,8.976,8.976,0,0,1,3.094.133,13.7,13.7,0,0,1,5.03,0Z"/>
      <path class="cls-3" d="M 5.029542922973633 3.074654579162598 C 5.583548069000244 3.074654579162598 6.111587524414062 3.035939455032349 6.591796398162842 2.965995311737061 C 7.071775913238525 2.896085262298584 7.50376558303833 2.795006275177002 7.866065979003906 2.670264005661011 C 8.228057861328125 2.545628070831299 8.520359039306641 2.397409200668335 8.721451759338379 2.233098983764648 C 8.922317504882812 2.068973541259766 9.032135009765625 1.888828873634338 9.029542922973633 1.70011579990387 C 9.026954650878906 1.51164710521698 8.912481307983398 1.332190155982971 8.707985877990723 1.169076561927795 C 8.503719329833984 1.006145834922791 8.209589958190918 0.8594856858253479 7.847289562225342 0.7363895773887634 C 7.485298156738281 0.6133979558944702 7.055137157440186 0.51389080286026 6.578330993652344 0.445147842168808 C 6.101749897003174 0.3764374256134033 5.578366756439209 0.3384330272674561 5.029542922973633 0.3384330272674561 C 4.480718612670898 0.3384330272674561 3.957335472106934 0.3764374256134033 3.48075532913208 0.445147842168808 C 3.003949403762817 0.51389080286026 2.573788404464722 0.6133979558944702 2.211796045303345 0.7363895773887634 C 1.849497199058533 0.8594856858253479 1.555365681648254 1.006145834922791 1.351099848747253 1.169076561927795 C 1.146604895591736 1.332190155982971 1.032131910324097 1.51164710521698 1.029542922973633 1.70011579990387 C 1.026950478553772 1.888828873634338 1.136767029762268 2.068973541259766 1.337633371353149 2.233098983764648 C 1.538725733757019 2.397409200668335 1.831028699874878 2.545628070831299 2.193019390106201 2.670264005661011 C 2.555319309234619 2.795006275177002 2.987308979034424 2.896085262298584 3.467288255691528 2.965995311737061 C 3.947497367858887 3.035939455032349 4.475537300109863 3.074654579162598 5.029542922973633 3.074654579162598 M 5.029542922973633 3.420319318771362 C 4.335108757019043 3.420319318771362 3.673769950866699 3.371907711029053 3.072728872299194 3.284401655197144 C 2.472046852111816 3.196947574615479 1.931910991668701 3.070491790771484 1.479266166687012 2.914381742477417 C 1.027104139328003 2.758437633514404 0.6624299883842468 2.572965621948242 0.4119118452072144 2.367288589477539 C 0.1617462933063507 2.161900997161865 0.02548502944409847 1.93642270565033 0.02954286336898804 1.70011579990387 C 0.03359412774443626 1.464191794395447 0.1771375834941864 1.239790320396423 0.4329763352870941 1.035986185073853 C 0.6884565949440002 0.8324674963951111 1.055989384651184 0.6494312882423401 1.50863254070282 0.4958934485912323 C 1.960796594619751 0.3425180912017822 2.498074293136597 0.2185167819261551 3.093794584274292 0.132884606719017 C 3.689162492752075 0.04730302467942238 4.343218326568604 0 5.029542922973633 0 C 5.715867042541504 0 6.369924068450928 0.04730302467942238 6.965291500091553 0.132884606719017 C 7.561011791229248 0.2185167819261551 8.098288536071777 0.3425180912017822 8.550453186035156 0.4958934783935547 C 9.003096580505371 0.6494312882423401 9.37062931060791 0.8324674963951111 9.62610912322998 1.035986185073853 C 9.88194751739502 1.239790320396423 10.02549266815186 1.464191794395447 10.02954292297363 1.70011579990387 C 10.03360080718994 1.93642270565033 9.8973388671875 2.161900997161865 9.647173881530762 2.367288589477539 C 9.396656036376953 2.572965621948242 9.031980514526367 2.758437633514404 8.579818725585938 2.914381742477417 C 8.127172470092773 3.070491790771484 7.587038040161133 3.196947574615479 6.986354827880859 3.284401655197144 C 6.385313987731934 3.371907711029053 5.723976135253906 3.420319318771362 5.029542922973633 3.420319318771362 Z"/>
    </g>
  </g>
</svg>
